<svg version="1.1" id="Layer_1" xmlns="http://www.w3.org/2000/svg" xmlns:xlink="http://www.w3.org/1999/xlink" x="0px" y="0px"
	 width="100%" viewBox="0 0 325 313" enable-background="new 0 0 325 313" xml:space="preserve">
<path fill="#010101" opacity="1.000000" stroke="none" 
	d="
M223.000000,314.000000 
	C148.666687,314.000000 74.833359,314.000000 1.000030,314.000000 
	C1.000020,209.666702 1.000020,105.333397 1.000010,1.000072 
	C109.333282,1.000048 217.666565,1.000048 325.999878,1.000024 
	C325.999939,105.333260 325.999939,209.666519 325.999969,313.999878 
	C291.833344,314.000000 257.666656,314.000000 223.000000,314.000000 
M157.097397,223.468323 
	C153.139755,223.468323 149.182129,223.468323 144.993759,223.468323 
	C144.993759,226.621277 144.993759,229.366806 144.993759,232.237732 
	C146.750336,232.478714 148.306931,232.692276 149.925934,232.914383 
	C149.925934,245.187317 149.925934,257.159485 149.925934,269.365540 
	C148.559204,269.693512 147.236496,270.010895 146.187500,270.262634 
	C146.187500,273.286133 146.187500,275.892670 146.187500,278.456787 
	C153.171143,278.456787 159.878357,278.456787 166.780441,278.456787 
	C166.780441,276.735535 166.809937,275.409546 166.772034,274.085541 
	C166.734909,272.789001 166.629120,271.494385 166.558075,270.277832 
	C161.886368,269.157898 161.387512,267.454437 162.962173,259.971283 
	C166.324356,260.522400 169.735931,261.845917 172.946320,261.466644 
	C183.196259,260.255676 188.934097,251.405045 187.903946,239.312363 
	C186.608765,224.108658 174.633575,217.918762 163.166580,225.573776 
	C161.045685,224.713715 159.510223,224.091064 157.097397,223.468323 
M177.940750,89.619148 
	C177.277084,81.087852 174.529984,73.458984 168.744476,66.946625 
	C157.922470,54.764980 141.674316,50.785847 126.501587,56.806046 
	C112.573730,62.332310 102.545448,77.498146 103.171989,92.087547 
	C103.881882,108.617714 114.063469,122.429688 129.773621,126.864540 
	C135.672775,128.529831 142.075470,128.411392 148.254623,129.106857 
	C144.653564,157.020035 166.012543,172.712265 183.924789,173.471558 
	C204.001923,174.322586 222.356049,157.647095 222.720520,136.700470 
	C222.896286,126.599792 219.492737,117.329514 212.225784,109.970512 
	C202.631805,100.254974 190.778000,97.187378 177.162613,99.358215 
	C177.474365,96.048553 177.734161,93.290535 177.940750,89.619148 
M53.365032,209.957840 
	C50.685055,209.101318 48.060120,207.818512 45.315311,207.464111 
	C34.967751,206.128021 25.183134,207.205399 18.393753,216.409363 
	C11.774333,225.382904 11.886893,242.658142 18.300707,251.933777 
	C24.150850,260.394257 36.348156,264.002380 48.441051,260.849701 
	C55.559780,258.993805 60.781418,252.922485 61.413403,245.570496 
	C57.818275,244.556717 54.184448,243.532028 50.598904,242.520950 
	C47.317265,249.362366 43.480034,251.643753 37.332447,250.593613 
	C31.357420,249.572968 28.436119,245.882187 27.948158,238.374680 
	C27.743563,235.226883 27.701317,232.036377 27.963928,228.896973 
	C28.542471,221.980789 31.884758,218.526733 38.054604,218.076660 
	C44.592384,217.599716 46.753708,219.361053 48.761131,226.884949 
	C52.797791,226.029785 56.838490,225.173767 60.956303,224.301422 
	C61.781055,217.860397 58.990955,213.541702 53.365032,209.957840 
M105.030983,270.263947 
	C103.918228,271.870728 102.805466,273.477478 101.738113,275.018677 
	C109.744308,283.594574 122.525780,280.440277 126.100075,269.521606 
	C129.651459,258.672882 133.446976,247.898651 137.425568,237.199631 
	C138.260788,234.953598 140.360382,233.177750 141.877380,231.185242 
	C142.161713,231.379791 142.446060,231.574341 142.730392,231.768890 
	C142.730392,229.151733 142.730392,226.534576 142.730392,223.754761 
	C136.610275,223.754761 130.704849,223.754761 123.861748,223.754761 
	C124.555893,227.390350 125.159843,230.553574 125.763802,233.716812 
	C126.243683,233.659256 126.723564,233.601715 127.203445,233.544159 
	C125.701622,237.729477 124.199799,241.914795 122.316116,247.164276 
	C120.148720,241.884171 118.460617,237.771698 116.772514,233.659225 
	C117.218803,233.698914 117.665100,233.738586 118.111397,233.778259 
	C118.614502,230.452896 119.117615,227.127533 119.636871,223.695496 
	C112.472839,223.695496 106.354965,223.695496 100.072594,223.695496 
	C100.072594,226.572479 100.072594,229.211563 100.072594,230.468552 
	C102.392548,233.102646 104.410423,234.663757 105.459526,236.719330 
	C108.851555,243.365494 112.219765,250.065308 114.897957,257.013947 
	C115.976082,259.811127 115.741310,263.397369 115.189827,266.459839 
	C114.641586,269.504211 112.457428,270.761322 109.163147,269.032928 
	C108.297035,268.578491 106.755692,269.411041 105.030983,270.263947 
M274.934845,250.353134 
	C277.825317,259.444702 285.187775,261.452789 293.419678,261.808380 
	C301.951050,262.176880 308.624573,257.835114 311.050842,250.666824 
	C314.181122,241.418533 311.780762,230.486664 305.497528,225.919449 
	C304.184753,224.965225 302.599884,223.911591 301.077728,223.805756 
	C296.005615,223.453079 290.795105,222.807480 285.842102,223.581955 
	C279.065521,224.641571 275.033661,229.576660 274.197693,236.236038 
	C273.650635,240.593964 274.512360,245.128738 274.934845,250.353134 
M196.095673,236.611664 
	C196.124207,241.099319 195.872269,245.610382 196.244385,250.069366 
	C196.863251,257.484985 201.498520,261.329834 209.364258,261.464020 
	C216.565430,261.586853 220.874695,257.679718 221.766174,250.036530 
	C219.058228,249.078552 216.308182,248.105667 214.410614,247.434372 
	C212.648148,249.136749 211.368378,250.372879 209.066315,252.596451 
	C209.066315,244.780319 209.066315,238.757950 209.066315,232.734131 
	C212.525391,232.572510 215.598206,232.428940 218.619904,232.287750 
	C218.619904,229.142242 218.619904,226.539871 218.619904,223.459747 
	C215.311478,223.459747 212.231445,223.459747 208.594147,223.459747 
	C208.594147,219.940887 208.594147,216.892181 208.594147,213.698486 
	C204.442459,213.698486 200.860840,213.698486 197.223892,213.698486 
	C196.860992,217.022064 196.524307,220.105499 196.200348,223.072418 
	C194.162582,223.390381 192.602478,223.633820 191.026886,223.879669 
	C191.026886,226.813232 191.026886,229.440872 191.026886,231.969986 
	C192.839294,233.250458 196.862885,231.170807 196.095673,236.611664 
M248.342575,209.400284 
	C249.677963,211.070648 251.013367,212.740997 253.199112,215.474976 
	C253.199112,226.204483 253.199112,238.671036 253.199112,251.290268 
	C251.776474,251.668045 250.455673,252.018799 249.439987,252.288513 
	C249.439987,255.347015 249.439987,257.937225 249.439987,260.669769 
	C256.349365,260.669769 262.938934,260.669769 269.774353,260.669769 
	C269.774353,257.724915 269.774353,254.966858 269.774353,252.154770 
	C268.502930,251.874069 267.277344,251.603500 265.868835,251.292542 
	C265.868835,235.476807 265.868835,219.848618 265.868835,204.013336 
	C260.031097,204.013336 254.425568,204.013336 248.542709,204.013336 
	C248.471130,205.627579 248.406616,207.082336 248.342575,209.400284 
M84.220444,237.947937 
	C86.883263,233.720001 90.262749,233.225464 94.497215,236.390594 
	C96.140793,232.577057 97.684387,228.995529 99.196419,225.487213 
	C92.977173,220.748962 88.986069,221.452209 82.338005,228.306946 
	C82.133636,226.691071 81.939857,225.158966 81.777931,223.878723 
	C76.077263,223.878723 70.693634,223.878723 65.382645,223.878723 
	C65.382645,226.898346 65.382645,229.497116 65.382645,232.194092 
	C67.202667,232.465256 68.789749,232.701721 70.508118,232.957748 
	C70.508118,239.182983 70.508118,245.121078 70.508118,251.284897 
	C69.126938,251.659592 67.789375,252.022461 66.665924,252.327240 
	C66.665924,255.300797 66.665924,257.893463 66.665924,260.630493 
	C73.560356,260.630493 80.138130,260.630493 86.938072,260.630493 
	C86.938072,257.652466 86.938072,254.901154 86.938072,252.192505 
	C85.526382,251.861938 84.313774,251.577988 82.633102,251.184433 
	C83.064400,246.898224 83.475304,242.814667 84.220444,237.947937 
M245.687851,252.060501 
	C242.962296,252.060898 241.717285,251.168640 241.832901,247.982605 
	C242.125031,239.933380 241.929749,231.866470 241.929749,223.818481 
	C235.591095,223.818481 229.896790,223.818481 224.171677,223.818481 
	C224.171677,226.817322 224.171677,229.441910 224.171677,232.220551 
	C225.892670,232.453430 227.470093,232.666885 229.385544,232.926086 
	C229.385544,237.802307 229.132187,242.440887 229.469757,247.036057 
	C229.717361,250.406769 228.881424,252.360764 225.381592,252.144791 
	C225.381592,255.198151 225.381592,257.793549 225.381592,260.868225 
	C228.895340,260.868225 232.177490,260.868225 235.459625,260.868225 
	C238.896149,260.868225 242.332672,260.868225 246.021713,260.868225 
	C246.021713,257.856628 246.021713,255.387909 245.687851,252.060501 
M233.793320,203.339294 
	C230.128723,204.071976 227.479416,206.308792 227.579269,209.964615 
	C227.642212,212.269073 229.004761,215.472961 230.810013,216.543015 
	C232.780838,217.711212 236.652771,217.889938 238.383942,216.657272 
	C240.343445,215.262024 241.816391,211.796722 241.756699,209.272766 
	C241.663818,205.346054 238.439667,203.490189 233.793320,203.339294 
M180.822128,297.311615 
	C180.634903,296.457733 180.447693,295.603821 179.935562,293.267975 
	C178.446457,296.602020 177.551071,298.606750 176.655685,300.611450 
	C177.034546,300.808502 177.413422,301.005524 177.792297,301.202576 
	C178.707321,300.116730 179.622360,299.030884 180.822128,297.311615 
M160.077484,298.543610 
	C161.050293,297.421875 162.023117,296.300171 163.219452,294.920715 
	C161.851685,295.064758 160.421997,294.864594 159.431320,295.431488 
	C158.650314,295.878448 158.348633,297.250275 158.018616,298.270905 
	C157.983307,298.380096 159.183304,298.888672 160.077484,298.543610 
M163.595688,300.009033 
	C163.808411,300.572754 164.021133,301.136444 164.233841,301.700165 
	C164.730545,301.189728 165.227234,300.679321 165.723938,300.168915 
	C165.165024,299.957611 164.606110,299.746307 163.595688,300.009033 
z"/>
<path fill="#F8F8F8" opacity="1.000000" stroke="none" 
	d="
M157.536072,223.468369 
	C159.510223,224.091064 161.045685,224.713715 163.166580,225.573776 
	C174.633575,217.918762 186.608765,224.108658 187.903946,239.312363 
	C188.934097,251.405045 183.196259,260.255676 172.946320,261.466644 
	C169.735931,261.845917 166.324356,260.522400 162.962173,259.971283 
	C161.387512,267.454437 161.886368,269.157898 166.558075,270.277832 
	C166.629120,271.494385 166.734909,272.789001 166.772034,274.085541 
	C166.809937,275.409546 166.780441,276.735535 166.780441,278.456787 
	C159.878357,278.456787 153.171143,278.456787 146.187500,278.456787 
	C146.187500,275.892670 146.187500,273.286133 146.187500,270.262634 
	C147.236496,270.010895 148.559204,269.693512 149.925934,269.365540 
	C149.925934,257.159485 149.925934,245.187317 149.925934,232.914383 
	C148.306931,232.692276 146.750336,232.478714 144.993759,232.237732 
	C144.993759,229.366806 144.993759,226.621277 144.993759,223.468323 
	C149.182129,223.468323 153.139755,223.468323 157.536072,223.468369 
M174.442001,236.483337 
	C173.569550,233.070175 171.198502,230.884537 167.969009,232.181000 
	C165.843567,233.034256 163.715317,235.688126 163.066742,237.958130 
	C162.243469,240.839523 162.296661,244.334396 163.156052,247.210968 
	C163.769394,249.263931 166.052734,251.597122 168.092896,252.259842 
	C171.064285,253.225098 173.751114,251.315964 174.235901,248.074005 
	C174.765640,244.531311 174.601959,240.884933 174.442001,236.483337 
z"/>
<path fill="#E8E8E8" opacity="1.000000" stroke="none" 
	d="
M177.967346,90.075836 
	C177.734161,93.290535 177.474365,96.048553 177.162613,99.358215 
	C190.778000,97.187378 202.631805,100.254974 212.225784,109.970512 
	C219.492737,117.329514 222.896286,126.599792 222.720520,136.700470 
	C222.356049,157.647095 204.001923,174.322586 183.924789,173.471558 
	C166.012543,172.712265 144.653564,157.020035 148.254623,129.106857 
	C142.075470,128.411392 135.672775,128.529831 129.773621,126.864540 
	C114.063469,122.429688 103.881882,108.617714 103.171989,92.087547 
	C102.545448,77.498146 112.573730,62.332310 126.501587,56.806046 
	C141.674316,50.785847 157.922470,54.764980 168.744476,66.946625 
	C174.529984,73.458984 177.277084,81.087852 177.967346,90.075836 
M170.895935,107.220032 
	C177.969986,92.530815 174.862244,75.437752 163.363358,65.789787 
	C150.865295,55.303478 133.383087,54.248951 120.779541,63.221146 
	C109.660316,71.136681 104.003952,86.376907 107.348602,99.408791 
	C111.196526,114.401535 121.510742,123.188507 137.796021,125.347771 
	C150.375992,127.015755 164.003876,119.760300 170.895935,107.220032 
M151.291718,140.809631 
	C154.285217,156.257950 163.383163,166.516953 178.694595,169.610596 
	C192.662384,172.432770 204.795212,167.712067 213.167770,155.765228 
	C221.758652,143.506897 222.103500,130.306137 214.219971,117.827026 
	C206.467407,105.555206 194.630783,100.151703 179.997635,102.252083 
	C178.189148,102.511665 175.927444,104.349655 175.120819,106.047676 
	C171.268967,114.156174 165.928604,121.048332 157.610367,124.382278 
	C152.150787,126.570473 150.937485,130.016586 151.035645,134.961624 
	C151.068665,136.625031 151.100754,138.288452 151.291718,140.809631 
z"/>
<path fill="#F9F9F9" opacity="1.000000" stroke="none" 
	d="
M53.705170,210.121338 
	C58.990955,213.541702 61.781055,217.860397 60.956303,224.301422 
	C56.838490,225.173767 52.797791,226.029785 48.761131,226.884949 
	C46.753708,219.361053 44.592384,217.599716 38.054604,218.076660 
	C31.884758,218.526733 28.542471,221.980789 27.963928,228.896973 
	C27.701317,232.036377 27.743563,235.226883 27.948158,238.374680 
	C28.436119,245.882187 31.357420,249.572968 37.332447,250.593613 
	C43.480034,251.643753 47.317265,249.362366 50.598904,242.520950 
	C54.184448,243.532028 57.818275,244.556717 61.413403,245.570496 
	C60.781418,252.922485 55.559780,258.993805 48.441051,260.849701 
	C36.348156,264.002380 24.150850,260.394257 18.300707,251.933777 
	C11.886893,242.658142 11.774333,225.382904 18.393753,216.409363 
	C25.183134,207.205399 34.967751,206.128021 45.315311,207.464111 
	C48.060120,207.818512 50.685055,209.101318 53.705170,210.121338 
z"/>
<path fill="#F5F5F5" opacity="1.000000" stroke="none" 
	d="
M105.277702,269.958252 
	C106.755692,269.411041 108.297035,268.578491 109.163147,269.032928 
	C112.457428,270.761322 114.641586,269.504211 115.189827,266.459839 
	C115.741310,263.397369 115.976082,259.811127 114.897957,257.013947 
	C112.219765,250.065308 108.851555,243.365494 105.459526,236.719330 
	C104.410423,234.663757 102.392548,233.102646 100.072594,230.468552 
	C100.072594,229.211563 100.072594,226.572479 100.072594,223.695496 
	C106.354965,223.695496 112.472839,223.695496 119.636871,223.695496 
	C119.117615,227.127533 118.614502,230.452896 118.111397,233.778259 
	C117.665100,233.738586 117.218803,233.698914 116.772514,233.659225 
	C118.460617,237.771698 120.148720,241.884171 122.316116,247.164276 
	C124.199799,241.914795 125.701622,237.729477 127.203445,233.544159 
	C126.723564,233.601715 126.243683,233.659256 125.763802,233.716812 
	C125.159843,230.553574 124.555893,227.390350 123.861748,223.754761 
	C130.704849,223.754761 136.610275,223.754761 142.730392,223.754761 
	C142.730392,226.534576 142.730392,229.151733 142.730392,231.768890 
	C142.446060,231.574341 142.161713,231.379791 141.877380,231.185242 
	C140.360382,233.177750 138.260788,234.953598 137.425568,237.199631 
	C133.446976,247.898651 129.651459,258.672882 126.100075,269.521606 
	C122.525780,280.440277 109.744308,283.594574 101.738113,275.018677 
	C102.805466,273.477478 103.918228,271.870728 105.277702,269.958252 
z"/>
<path fill="#F8F8F8" opacity="1.000000" stroke="none" 
	d="
M274.838959,249.968719 
	C274.512360,245.128738 273.650635,240.593964 274.197693,236.236038 
	C275.033661,229.576660 279.065521,224.641571 285.842102,223.581955 
	C290.795105,222.807480 296.005615,223.453079 301.077728,223.805756 
	C302.599884,223.911591 304.184753,224.965225 305.497528,225.919449 
	C311.780762,230.486664 314.181122,241.418533 311.050842,250.666824 
	C308.624573,257.835114 301.951050,262.176880 293.419678,261.808380 
	C285.187775,261.452789 277.825317,259.444702 274.838959,249.968719 
M298.953735,237.194611 
	C298.035522,233.774933 296.119629,231.494888 292.270599,231.955902 
	C288.145966,232.449951 286.948334,235.534637 286.758087,239.072891 
	C286.616638,241.703934 286.670929,244.391022 287.050201,246.993057 
	C287.530548,250.288513 289.446594,252.349304 293.050568,252.424652 
	C296.800140,252.503021 298.528931,250.190460 298.939056,246.972916 
	C299.312286,244.044403 299.038879,241.033463 298.953735,237.194611 
z"/>
<path fill="#F2F2F2" opacity="1.000000" stroke="none" 
	d="
M196.095566,236.128479 
	C196.862885,231.170807 192.839294,233.250458 191.026886,231.969986 
	C191.026886,229.440872 191.026886,226.813232 191.026886,223.879669 
	C192.602478,223.633820 194.162582,223.390381 196.200348,223.072418 
	C196.524307,220.105499 196.860992,217.022064 197.223892,213.698486 
	C200.860840,213.698486 204.442459,213.698486 208.594147,213.698486 
	C208.594147,216.892181 208.594147,219.940887 208.594147,223.459747 
	C212.231445,223.459747 215.311478,223.459747 218.619904,223.459747 
	C218.619904,226.539871 218.619904,229.142242 218.619904,232.287750 
	C215.598206,232.428940 212.525391,232.572510 209.066315,232.734131 
	C209.066315,238.757950 209.066315,244.780319 209.066315,252.596451 
	C211.368378,250.372879 212.648148,249.136749 214.410614,247.434372 
	C216.308182,248.105667 219.058228,249.078552 221.766174,250.036530 
	C220.874695,257.679718 216.565430,261.586853 209.364258,261.464020 
	C201.498520,261.329834 196.863251,257.484985 196.244385,250.069366 
	C195.872269,245.610382 196.124207,241.099319 196.095566,236.128479 
z"/>
<path fill="#F4F4F4" opacity="1.000000" stroke="none" 
	d="
M248.342346,208.968689 
	C248.406616,207.082336 248.471130,205.627579 248.542709,204.013336 
	C254.425568,204.013336 260.031097,204.013336 265.868835,204.013336 
	C265.868835,219.848618 265.868835,235.476807 265.868835,251.292542 
	C267.277344,251.603500 268.502930,251.874069 269.774353,252.154770 
	C269.774353,254.966858 269.774353,257.724915 269.774353,260.669769 
	C262.938934,260.669769 256.349365,260.669769 249.439987,260.669769 
	C249.439987,257.937225 249.439987,255.347015 249.439987,252.288513 
	C250.455673,252.018799 251.776474,251.668045 253.199112,251.290268 
	C253.199112,238.671036 253.199112,226.204483 253.199112,215.474976 
	C251.013367,212.740997 249.677963,211.070648 248.342346,208.968689 
z"/>
<path fill="#F6F6F6" opacity="1.000000" stroke="none" 
	d="
M84.053329,238.339508 
	C83.475304,242.814667 83.064400,246.898224 82.633102,251.184433 
	C84.313774,251.577988 85.526382,251.861938 86.938072,252.192505 
	C86.938072,254.901154 86.938072,257.652466 86.938072,260.630493 
	C80.138130,260.630493 73.560356,260.630493 66.665924,260.630493 
	C66.665924,257.893463 66.665924,255.300797 66.665924,252.327240 
	C67.789375,252.022461 69.126938,251.659592 70.508118,251.284897 
	C70.508118,245.121078 70.508118,239.182983 70.508118,232.957748 
	C68.789749,232.701721 67.202667,232.465256 65.382645,232.194092 
	C65.382645,229.497116 65.382645,226.898346 65.382645,223.878723 
	C70.693634,223.878723 76.077263,223.878723 81.777931,223.878723 
	C81.939857,225.158966 82.133636,226.691071 82.338005,228.306946 
	C88.986069,221.452209 92.977173,220.748962 99.196419,225.487213 
	C97.684387,228.995529 96.140793,232.577057 94.497215,236.390594 
	C90.262749,233.225464 86.883263,233.720001 84.053329,238.339508 
z"/>
<path fill="#F2F2F2" opacity="1.000000" stroke="none" 
	d="
M245.854782,252.489838 
	C246.021713,255.387909 246.021713,257.856628 246.021713,260.868225 
	C242.332672,260.868225 238.896149,260.868225 235.459625,260.868225 
	C232.177490,260.868225 228.895340,260.868225 225.381592,260.868225 
	C225.381592,257.793549 225.381592,255.198151 225.381592,252.144791 
	C228.881424,252.360764 229.717361,250.406769 229.469757,247.036057 
	C229.132187,242.440887 229.385544,237.802307 229.385544,232.926086 
	C227.470093,232.666885 225.892670,232.453430 224.171677,232.220551 
	C224.171677,229.441910 224.171677,226.817322 224.171677,223.818481 
	C229.896790,223.818481 235.591095,223.818481 241.929749,223.818481 
	C241.929749,231.866470 242.125031,239.933380 241.832901,247.982605 
	C241.717285,251.168640 242.962296,252.060898 245.854782,252.489838 
z"/>
<path fill="#F6F6F6" opacity="1.000000" stroke="none" 
	d="
M234.168930,203.274353 
	C238.439667,203.490189 241.663818,205.346054 241.756699,209.272766 
	C241.816391,211.796722 240.343445,215.262024 238.383942,216.657272 
	C236.652771,217.889938 232.780838,217.711212 230.810013,216.543015 
	C229.004761,215.472961 227.642212,212.269073 227.579269,209.964615 
	C227.479416,206.308792 230.128723,204.071976 234.168930,203.274353 
z"/>
<path fill="#0B0B0B" opacity="1.000000" stroke="none" 
	d="
M180.679764,297.628326 
	C179.622360,299.030884 178.707321,300.116730 177.792297,301.202576 
	C177.413422,301.005524 177.034546,300.808502 176.655685,300.611450 
	C177.551071,298.606750 178.446457,296.602020 179.935562,293.267975 
	C180.447693,295.603821 180.634903,296.457733 180.679764,297.628326 
z"/>
<path fill="#1C1C1C" opacity="1.000000" stroke="none" 
	d="
M159.943878,298.877808 
	C159.183304,298.888672 157.983307,298.380096 158.018616,298.270905 
	C158.348633,297.250275 158.650314,295.878448 159.431320,295.431488 
	C160.421997,294.864594 161.851685,295.064758 163.219452,294.920715 
	C162.023117,296.300171 161.050293,297.421875 159.943878,298.877808 
z"/>
<path fill="#1C1C1C" opacity="1.000000" stroke="none" 
	d="
M163.821442,299.772034 
	C164.606110,299.746307 165.165024,299.957611 165.723938,300.168915 
	C165.227234,300.679321 164.730545,301.189728 164.233856,301.700165 
	C164.021133,301.136444 163.808411,300.572754 163.821442,299.772034 
z"/>
<path fill="#070707" opacity="1.000000" stroke="none" 
	d="
M174.591263,236.883545 
	C174.601959,240.884933 174.765640,244.531311 174.235901,248.074005 
	C173.751114,251.315964 171.064285,253.225098 168.092896,252.259842 
	C166.052734,251.597122 163.769394,249.263931 163.156052,247.210968 
	C162.296661,244.334396 162.243469,240.839523 163.066742,237.958130 
	C163.715317,235.688126 165.843567,233.034256 167.969009,232.181000 
	C171.198502,230.884537 173.569550,233.070175 174.591263,236.883545 
z"/>
<path fill="#040404" opacity="1.000000" stroke="none" 
	d="
M170.732834,107.559578 
	C164.003876,119.760300 150.375992,127.015755 137.796021,125.347771 
	C121.510742,123.188507 111.196526,114.401535 107.348602,99.408791 
	C104.003952,86.376907 109.660316,71.136681 120.779541,63.221146 
	C133.383087,54.248951 150.865295,55.303478 163.363358,65.789787 
	C174.862244,75.437752 177.969986,92.530815 170.732834,107.559578 
M152.448517,75.509544 
	C149.488403,72.445961 146.528305,69.382385 143.568192,66.318810 
	C143.223694,66.641136 142.879211,66.963470 142.534729,67.285805 
	C142.134384,65.676025 141.734039,64.066238 141.540863,63.289448 
	C138.294144,65.777832 134.814362,67.534256 132.688217,70.322754 
	C130.425110,73.290894 128.373672,77.163651 128.129318,80.770134 
	C127.648590,87.864822 133.149857,90.991394 138.841919,93.129478 
	C138.841919,99.498207 138.841919,105.596535 138.841919,111.737556 
	C132.308640,111.111732 132.127670,105.283508 130.105560,100.827499 
	C126.477119,106.158852 130.653244,112.785011 138.298660,115.210571 
	C139.058563,117.013893 139.734177,118.617203 140.409790,120.220505 
	C140.824936,120.093803 141.240082,119.967102 141.655212,119.840393 
	C141.901520,118.417557 142.147827,116.994713 142.389481,115.598732 
	C149.492706,113.651970 153.431625,109.520241 153.883759,103.589516 
	C154.353729,97.425293 150.671478,92.968643 142.267166,89.516815 
	C142.267166,83.412598 142.267166,77.308380 142.267166,71.113991 
	C149.338501,70.852051 148.805252,78.193199 152.071487,81.593452 
	C152.460373,81.383217 152.849274,81.172981 153.238159,80.962746 
	C153.085678,79.392189 152.933212,77.821632 152.448517,75.509544 
z"/>
<path fill="#050505" opacity="1.000000" stroke="none" 
	d="
M151.212494,140.380753 
	C151.100754,138.288452 151.068665,136.625031 151.035645,134.961624 
	C150.937485,130.016586 152.150787,126.570473 157.610367,124.382278 
	C165.928604,121.048332 171.268967,114.156174 175.120819,106.047676 
	C175.927444,104.349655 178.189148,102.511665 179.997635,102.252083 
	C194.630783,100.151703 206.467407,105.555206 214.219971,117.827026 
	C222.103500,130.306137 221.758652,143.506897 213.167770,155.765228 
	C204.795212,167.712067 192.662384,172.432770 178.694595,169.610596 
	C163.383163,166.516953 154.285217,156.257950 151.212494,140.380753 
M202.245041,123.267570 
	C200.259613,119.045296 198.274185,114.823021 196.067810,110.130859 
	C195.331436,110.711586 193.941589,112.442665 192.167709,113.047653 
	C189.892395,113.823677 187.111023,113.185722 184.892700,114.046310 
	C176.967819,117.120705 174.531815,126.758675 179.772537,133.502121 
	C180.764084,134.778000 181.968811,135.888199 183.139648,137.143997 
	C180.591324,142.866394 178.110199,148.437897 175.550400,154.186035 
	C170.335205,150.659668 171.541611,145.525970 172.182098,140.361694 
	C168.050858,142.739105 167.194717,146.912338 169.525391,151.786545 
	C171.152374,155.189133 174.965454,157.712784 173.553329,162.292725 
	C173.544861,162.320206 174.122772,162.528488 174.426849,162.652359 
	C174.328217,162.198669 174.229584,161.744965 174.130951,161.291275 
	C176.750351,160.592804 179.335663,159.519226 181.996582,159.277344 
	C186.881424,158.833298 191.357422,155.824844 193.035950,151.219467 
	C195.511002,144.428696 192.779541,139.311600 187.410233,134.900406 
	C189.999298,129.119476 192.534668,123.458412 195.670425,116.456795 
	C197.299545,119.898033 198.741730,121.975685 199.237442,124.258835 
	C199.752472,126.631058 199.352203,129.201996 199.352203,131.686020 
	C199.980927,131.765549 200.609665,131.845093 201.238388,131.924622 
	C201.626907,129.294785 202.015442,126.664955 202.245041,123.267570 
z"/>
<path fill="#050505" opacity="1.000000" stroke="none" 
	d="
M299.002136,237.626740 
	C299.038879,241.033463 299.312286,244.044403 298.939056,246.972916 
	C298.528931,250.190460 296.800140,252.503021 293.050568,252.424652 
	C289.446594,252.349304 287.530548,250.288513 287.050201,246.993057 
	C286.670929,244.391022 286.616638,241.703934 286.758087,239.072891 
	C286.948334,235.534637 288.145966,232.449951 292.270599,231.955902 
	C296.119629,231.494888 298.035522,233.774933 299.002136,237.626740 
z"/>
<path fill="#EEEEEE" opacity="1.000000" stroke="none" 
	d="
M152.614624,75.880310 
	C152.933212,77.821632 153.085678,79.392189 153.238159,80.962746 
	C152.849274,81.172981 152.460373,81.383217 152.071487,81.593452 
	C148.805252,78.193199 149.338501,70.852051 142.267166,71.113991 
	C142.267166,77.308380 142.267166,83.412598 142.262360,89.517517 
	C150.671478,92.968643 154.353729,97.425293 153.883759,103.589516 
	C153.431625,109.520241 149.492706,113.651970 142.389481,115.598732 
	C142.147827,116.994713 141.901520,118.417557 141.655212,119.840393 
	C141.240082,119.967102 140.824936,120.093803 140.409790,120.220505 
	C139.734177,118.617203 139.058563,117.013893 138.298660,115.210571 
	C130.653244,112.785011 126.477119,106.158852 130.105560,100.827499 
	C132.127670,105.283508 132.308640,111.111732 138.841919,111.737556 
	C138.841919,105.596535 138.841919,99.498207 138.841919,93.129478 
	C133.149857,90.991394 127.648590,87.864822 128.129318,80.770134 
	C128.373672,77.163651 130.425110,73.290894 132.688217,70.322754 
	C134.814362,67.534256 138.294144,65.777832 141.540863,63.289448 
	C141.734039,64.066238 142.134384,65.676025 142.534729,67.285805 
	C142.879211,66.963470 143.223694,66.641136 143.568192,66.318810 
	C146.528305,69.382385 149.488403,72.445961 152.614624,75.880310 
M142.067627,104.426460 
	C142.067627,106.869049 142.067627,109.311638 142.067627,111.786743 
	C147.520157,111.200577 150.846466,107.682785 150.883881,102.784462 
	C150.921463,97.864708 147.332138,94.050880 142.067596,93.552719 
	C142.067596,96.867676 142.067596,100.169945 142.067627,104.426460 
M134.336639,87.403595 
	C135.707062,88.117569 137.077469,88.831543 138.647598,89.649567 
	C138.647598,82.969421 138.647598,77.002426 138.647598,70.911171 
	C130.431610,73.793930 128.698959,79.832405 134.336639,87.403595 
z"/>
<path fill="#ECECEC" opacity="1.000000" stroke="none" 
	d="
M202.324493,123.651352 
	C202.015442,126.664955 201.626907,129.294785 201.238388,131.924622 
	C200.609665,131.845093 199.980927,131.765549 199.352203,131.686020 
	C199.352203,129.201996 199.752472,126.631058 199.237442,124.258835 
	C198.741730,121.975685 197.299545,119.898033 195.670425,116.456795 
	C192.534668,123.458412 189.999298,129.119476 187.410233,134.900406 
	C192.779541,139.311600 195.511002,144.428696 193.035950,151.219467 
	C191.357422,155.824844 186.881424,158.833298 181.996582,159.277344 
	C179.335663,159.519226 176.750351,160.592804 174.130951,161.291275 
	C174.229584,161.744965 174.328217,162.198669 174.426849,162.652359 
	C174.122772,162.528488 173.544861,162.320206 173.553329,162.292725 
	C174.965454,157.712784 171.152374,155.189133 169.525391,151.786545 
	C167.194717,146.912338 168.050858,142.739105 172.182098,140.361694 
	C171.541611,145.525970 170.335205,150.659668 175.550400,154.186035 
	C178.110199,148.437897 180.591324,142.866394 183.139648,137.143997 
	C181.968811,135.888199 180.764084,134.778000 179.772537,133.502121 
	C174.531815,126.758675 176.967819,117.120705 184.892700,114.046310 
	C187.111023,113.185722 189.892395,113.823677 192.167709,113.047653 
	C193.941589,112.442665 195.331436,110.711586 196.067810,110.130859 
	C198.274185,114.823021 200.259613,119.045296 202.324493,123.651352 
M186.747986,154.547791 
	C192.561218,148.846985 192.371445,142.935074 185.897369,138.360123 
	C183.372665,144.111954 180.882629,149.784836 177.865936,156.657578 
	C181.390732,155.924805 183.725769,155.439377 186.747986,154.547791 
M184.927353,117.118340 
	C178.422150,122.612175 178.294174,129.093903 184.781281,133.505280 
	C187.246078,127.810532 189.693710,122.155449 192.530746,115.600662 
	C189.515656,116.161606 187.594986,116.518936 184.927353,117.118340 
z"/>
<path fill="#0B0B0B" opacity="1.000000" stroke="none" 
	d="
M142.067612,103.949333 
	C142.067596,100.169945 142.067596,96.867676 142.067596,93.552719 
	C147.332138,94.050880 150.921463,97.864708 150.883881,102.784462 
	C150.846466,107.682785 147.520157,111.200577 142.067627,111.786743 
	C142.067627,109.311638 142.067627,106.869049 142.067612,103.949333 
z"/>
<path fill="#080808" opacity="1.000000" stroke="none" 
	d="
M134.017700,87.154007 
	C128.698959,79.832405 130.431610,73.793930 138.647598,70.911171 
	C138.647598,77.002426 138.647598,82.969421 138.647598,89.649567 
	C137.077469,88.831543 135.707062,88.117569 134.017700,87.154007 
z"/>
<path fill="#0C0C0C" opacity="1.000000" stroke="none" 
	d="
M186.404404,154.750870 
	C183.725769,155.439377 181.390732,155.924805 177.865936,156.657578 
	C180.882629,149.784836 183.372665,144.111954 185.897369,138.360123 
	C192.371445,142.935074 192.561218,148.846985 186.404404,154.750870 
z"/>
<path fill="#0C0C0C" opacity="1.000000" stroke="none" 
	d="
M185.300842,116.997299 
	C187.594986,116.518936 189.515656,116.161606 192.530746,115.600662 
	C189.693710,122.155449 187.246078,127.810532 184.781281,133.505280 
	C178.294174,129.093903 178.422150,122.612175 185.300842,116.997299 
z"/>
</svg>